<svg width="118" height="93" viewBox="0 0 118 93" fill="none" xmlns="http://www.w3.org/2000/svg">
<path d="M4.224 92.832C1.408 92.832 0 91.936 0 90.144V2.592C0 1.696 0.352 1.056 1.056 0.672003C1.76 0.224001 2.816 0 4.224 0C5.504 0 6.4 0.256001 6.912 0.768002C7.488 1.216 8 1.824 8.448 2.592L40.32 59.04L72.288 2.592C72.672 1.824 73.152 1.216 73.728 0.768002C74.304 0.256001 75.2 0 76.416 0C79.232 0 80.64 0.864 80.64 2.592V90.144C80.64 91.04 80.288 91.712 79.584 92.16C78.88 92.608 77.824 92.832 76.416 92.832C73.664 92.832 72.288 91.936 72.288 90.144V18.912L44.736 67.392C44.288 68.16 43.744 68.704 43.104 69.024C42.528 69.28 41.632 69.408 40.416 69.408C39.2 69.408 38.272 69.312 37.632 69.12C36.992 68.864 36.416 68.288 35.904 67.392L8.448 18.912V90.144C8.448 91.04 8.096 91.712 7.392 92.16C6.688 92.608 5.632 92.832 4.224 92.832Z" fill="#DE0000"/>
<path d="M41.224 92.832C38.408 92.832 37 91.936 37 90.144V2.592C37 1.696 37.352 1.056 38.056 0.672003C38.76 0.224001 39.816 0 41.224 0C42.504 0 43.4 0.256001 43.912 0.768002C44.488 1.216 45 1.824 45.448 2.592L77.32 59.04L109.288 2.592C109.672 1.824 110.152 1.216 110.728 0.768002C111.304 0.256001 112.2 0 113.416 0C116.232 0 117.64 0.864 117.64 2.592V90.144C117.64 91.04 117.288 91.712 116.584 92.16C115.88 92.608 114.824 92.832 113.416 92.832C110.664 92.832 109.288 91.936 109.288 90.144V18.912L81.736 67.392C81.288 68.16 80.744 68.704 80.104 69.024C79.528 69.28 78.632 69.408 77.416 69.408C76.2 69.408 75.272 69.312 74.632 69.12C73.992 68.864 73.416 68.288 72.904 67.392L45.448 18.912V90.144C45.448 91.04 45.096 91.712 44.392 92.16C43.688 92.608 42.632 92.832 41.224 92.832Z" fill="#DE0000"/>
</svg>
